<svg width="585" height="322" viewBox="0 0 585 322" fill="none" xmlns="http://www.w3.org/2000/svg">
<path d="M275.876 0H0V133.147C0 158.873 3.95383 183.008 11.802 204.886H11.7723L12.0993 205.754L12.8722 207.924H12.902C21.2853 230.236 33.8008 250.406 50.0917 267.914C50.4187 268.261 50.716 268.579 51.043 268.927L52.1132 270.026C88.1436 307.56 132.528 321.855 137.938 321.855C143.349 321.855 187.732 307.56 223.793 270.026L224.833 268.927L225.814 267.914H225.784C242.135 250.377 254.65 230.207 263.004 207.895H263.034L263.806 205.754L264.134 204.914H264.104C271.952 183.008 275.876 158.873 275.876 133.147V0Z" fill="#FFD243"/>
<path d="M260.679 205.663C252.444 228.062 240.018 248.29 223.697 265.856L137.932 182.368L52.196 265.856C35.8753 248.29 23.449 228.062 15.1846 205.663L137.932 86.1758L260.679 205.663Z" fill="#004899"/>
<path d="M193.827 173.34C193.827 173.34 193.649 173.311 193.589 173.311L193.262 171.198C193.471 171.112 193.649 171.025 193.857 170.909C195.849 169.78 196.205 167.292 194.719 164.803C193.322 162.459 191.092 161.562 189.19 162.43L187.614 160.838C188.952 159.247 188.565 156.903 186.603 154.964C185.028 153.43 183.185 152.909 181.698 153.43L180.271 151.723C181.46 150.449 181.49 148.395 180.271 146.34C179.052 144.257 177.239 143.302 175.485 143.649L174.593 141.797C175.634 141.102 176.199 139.916 176.199 138.498C176.199 137.832 176.08 137.167 175.842 136.443C175.158 134.331 173.731 133.057 172.096 132.913L171.68 130.598C173.226 129.961 174.296 128.514 174.296 126.807C174.296 124.549 172.364 122.697 170.015 122.697C168.558 122.697 167.31 123.363 166.537 124.405H109.459C108.686 123.363 107.408 122.697 105.981 122.697C103.603 122.697 101.7 124.549 101.7 126.807C101.7 128.514 102.77 129.961 104.316 130.598L103.9 132.913C102.265 133.057 100.838 134.331 100.125 136.443C99.3813 138.758 99.8867 140.813 101.403 141.797L100.481 143.649C98.757 143.302 96.9139 144.257 95.7248 146.34C94.5059 148.395 94.5654 150.449 95.7545 151.723L94.3275 153.43C92.8114 152.909 90.998 153.43 89.4224 154.964C87.4306 156.903 87.0442 159.247 88.4117 160.838L86.8361 162.43C86.3604 162.198 85.855 162.112 85.3497 162.112C83.8335 162.112 82.3471 163.038 81.3067 164.803C79.8203 167.292 80.177 169.78 82.1688 170.909C82.3471 171.025 82.5552 171.112 82.7633 171.198L82.4363 173.311C82.4363 173.311 82.2877 173.34 82.1985 173.34C79.9392 173.803 78.7798 176.002 79.4041 178.809C79.9986 181.616 81.9607 183.237 84.22 182.774C84.6659 182.687 85.0227 182.542 85.3794 182.34H85.4091L86.8658 183.787C86.2712 184.597 85.9145 185.581 85.9145 186.623C85.9145 189.372 88.2928 191.6 91.2358 191.6C94.1789 191.6 96.5869 189.372 96.5869 186.623C96.5869 183.874 94.1789 181.645 91.2358 181.645C90.1359 181.645 89.0954 181.964 88.2333 182.513L86.6577 180.951C87.1928 179.967 87.3415 178.694 87.0144 177.247C86.628 175.395 85.6172 174.092 84.3389 173.542H84.3092L84.6362 171.314C85.9145 171.054 87.1334 170.128 88.0252 168.623C89.1549 166.742 89.2143 164.89 88.2928 163.616L89.9575 161.909H89.9872C91.4736 162.43 93.3465 161.88 94.9221 160.346C96.9139 158.408 97.2409 156.092 95.8734 154.501L97.3301 152.736C99.1732 153.285 101.195 152.301 102.503 150.073C103.781 147.874 103.603 145.732 102.176 144.488L103.186 142.404C105.059 142.52 106.784 141.16 107.557 138.787C108.389 136.212 107.646 134.041 105.743 133.202L106.159 130.916C107.348 130.887 108.389 130.366 109.132 129.585V172.038H106.367L111.154 180.083L115.91 172.038H113.145V166.8H122.539V172.038H119.626L124.531 180.343L129.466 172.038H126.553V166.8H135.917V172.038H133.004L137.909 180.343L142.844 172.038H139.93V166.8H149.295V172.038H146.47L151.316 180.198L156.132 172.038H153.308V166.8H162.702V172.038H159.789L164.694 180.343L169.599 172.038H166.715V129.44C167.458 130.308 168.558 130.887 169.837 130.916L170.223 133.202C168.321 134.041 167.577 136.212 168.44 138.787C169.212 141.16 170.937 142.52 172.81 142.404L173.82 144.488C172.364 145.732 172.215 147.874 173.493 150.073C174.772 152.301 176.793 153.285 178.636 152.736L180.123 154.501C178.725 156.092 179.082 158.408 181.044 160.346C182.65 161.88 184.493 162.43 186.009 161.909L187.703 163.616C186.782 164.89 186.811 166.742 187.941 168.623C188.833 170.128 190.082 171.054 191.33 171.314L191.687 173.542H191.657C190.349 174.092 189.368 175.395 188.952 177.247C188.655 178.694 188.803 179.967 189.309 180.951L187.763 182.513C186.901 181.964 185.86 181.645 184.73 181.645C181.787 181.645 179.409 183.874 179.409 186.623C179.409 189.372 181.787 191.6 184.73 191.6C187.674 191.6 190.052 189.372 190.052 186.623C190.052 185.581 189.725 184.597 189.1 183.787L190.587 182.311H190.617C190.944 182.542 191.33 182.687 191.746 182.774C194.006 183.237 195.997 181.616 196.592 178.809C197.187 176.002 196.027 173.803 193.798 173.34H193.827ZM88.2036 185.118L88.9468 185.841C89.8386 186.71 91.1466 185.407 90.3143 184.568L89.5413 183.816C90.0467 183.555 90.6413 183.382 91.2656 183.382C93.1979 183.382 94.7437 184.828 94.7437 186.623C94.7437 188.417 93.1979 189.864 91.2656 189.864C89.3332 189.864 87.8171 188.417 87.8171 186.623C87.8171 186.073 87.9657 185.552 88.2036 185.118ZM85.5875 177.594C85.7659 178.433 85.7361 179.185 85.528 179.793L84.6659 178.925C83.8633 178.115 82.4661 179.359 83.3282 180.198L84.1903 181.095C84.1903 181.095 84.0119 181.153 83.9227 181.153C82.4363 181.472 81.4256 180.372 81.0094 178.52C80.6526 176.87 81.0094 175.539 82.1985 175.076L82.0201 176.089C81.8418 177.247 83.7146 177.565 83.893 176.378L84.0714 175.192C84.8146 175.597 85.3497 176.436 85.5875 177.594ZM86.7469 167.928C86.2415 168.768 85.6172 169.375 84.9335 169.636L85.1118 168.594C85.2902 167.407 83.4174 167.176 83.239 168.305L83.0606 169.491C81.7526 168.739 81.7526 167.263 82.7336 165.642C83.5065 164.311 84.547 163.588 85.5875 163.761L84.9632 164.369C84.1606 165.179 85.4686 166.51 86.3307 165.642L87.1631 164.803C87.609 165.613 87.4901 166.742 86.7766 167.928H86.7469ZM93.8816 159.334C93.0492 160.115 92.1574 160.549 91.3547 160.549L91.9196 159.97C92.7817 159.102 91.3845 157.887 90.5818 158.697L89.6305 159.652C88.8873 158.639 89.3035 157.337 90.5521 156.121C91.4439 155.282 92.3358 154.819 93.1681 154.848L92.6033 155.543C91.8601 156.44 93.2871 157.626 94.06 156.7L94.7735 155.832C95.4572 156.845 95.0707 158.147 93.8816 159.334ZM101.195 149.379C100.511 150.594 99.5597 151.26 98.5786 151.26L99.1732 150.594C99.9461 149.639 98.4597 148.539 97.7165 149.437L96.8544 150.449C96.2301 149.639 96.3788 148.424 97.122 147.15C97.8652 145.906 98.7867 145.183 99.738 145.212L99.2327 146.282C98.6976 147.324 100.392 148.163 100.927 147.064L101.403 146.08C102.027 146.89 101.938 148.105 101.195 149.379ZM106.159 138.353C105.713 139.655 104.97 140.495 104.049 140.726L104.405 139.974C104.94 138.874 103.216 138.15 102.711 139.192L102.176 140.292C101.343 139.626 101.224 138.411 101.7 136.964C102.116 135.72 102.77 134.88 103.632 134.62L103.424 135.691C103.246 136.819 105.089 137.196 105.297 136.009L105.476 134.938C106.427 135.575 106.635 136.848 106.159 138.353ZM106.486 129.208L106.665 128.253C106.873 127.067 105 126.807 104.792 127.935L104.613 128.977C103.93 128.543 103.484 127.646 103.484 126.807C103.484 125.475 104.613 124.376 106.011 124.376C107.408 124.376 108.538 125.475 108.538 126.807C108.538 127.993 107.675 128.977 106.486 129.208ZM122.569 162.893H113.175V153.98H122.569V162.893ZM122.569 150.073H113.175V141.16H122.569V150.073ZM122.569 137.253H113.175V128.311H122.569V137.253ZM135.947 162.893H126.553V153.98H135.947V162.893ZM135.947 150.073H126.553V141.16H135.947V150.073ZM135.947 137.253H126.553V128.311H135.947V137.253ZM149.324 162.893H139.96V153.98H149.324V162.893ZM149.324 150.073H139.96V141.16H149.324V150.073ZM149.324 137.253H139.96V128.311H149.324V137.253ZM162.732 162.893H153.338V153.98H162.732V162.893ZM162.732 150.073H153.338V141.16H162.732V150.073ZM162.732 137.253H153.338V128.311H162.732V137.253ZM169.391 128.253L169.539 129.208C168.38 128.977 167.488 127.993 167.488 126.807C167.488 125.475 168.618 124.376 170.045 124.376C171.472 124.376 172.572 125.475 172.572 126.807C172.572 127.646 172.096 128.543 171.412 128.977L171.234 127.935C171.026 126.807 169.183 127.067 169.391 128.253ZM173.345 139.192C172.839 138.15 171.115 138.874 171.65 139.974L172.007 140.726C171.085 140.495 170.312 139.655 169.896 138.353C169.391 136.848 169.629 135.575 170.55 134.938L170.758 136.009C170.966 137.196 172.81 136.819 172.601 135.691L172.423 134.62C173.255 134.88 173.939 135.72 174.355 136.964C174.831 138.411 174.712 139.626 173.88 140.292L173.345 139.192ZM179.201 150.449L178.339 149.437C177.596 148.539 176.109 149.639 176.882 150.594L177.447 151.26C176.496 151.26 175.545 150.594 174.831 149.379C174.088 148.105 173.999 146.89 174.623 146.08L175.128 147.064C175.663 148.163 177.328 147.324 176.823 146.282L176.288 145.212C177.269 145.212 178.19 145.906 178.904 147.15C179.677 148.424 179.825 149.639 179.201 150.449ZM186.395 159.652L185.474 158.697C184.641 157.887 183.274 159.102 184.136 159.97L184.671 160.549C183.868 160.549 183.006 160.115 182.174 159.334C180.955 158.147 180.569 156.845 181.252 155.832L181.966 156.7C182.768 157.626 184.195 156.44 183.422 155.543L182.858 154.848C183.69 154.819 184.612 155.282 185.474 156.121C186.722 157.337 187.168 158.639 186.395 159.652ZM184.76 189.864C182.858 189.864 181.282 188.417 181.282 186.623C181.282 184.828 182.858 183.382 184.76 183.382C185.384 183.382 185.979 183.555 186.484 183.816L185.741 184.568C184.909 185.407 186.217 186.71 187.079 185.841L187.822 185.118C188.09 185.552 188.238 186.073 188.238 186.623C188.238 188.417 186.693 189.864 184.76 189.864ZM190.944 168.594L191.092 169.636C190.438 169.375 189.814 168.768 189.309 167.928C188.595 166.742 188.446 165.613 188.922 164.803L189.755 165.642C190.617 166.51 191.925 165.179 191.092 164.369L190.498 163.761C191.538 163.588 192.549 164.311 193.352 165.642C194.303 167.263 194.303 168.739 192.995 169.491L192.816 168.305C192.638 167.176 190.765 167.407 190.944 168.594ZM195.016 178.52C194.63 180.372 193.619 181.472 192.133 181.153C192.044 181.153 191.925 181.124 191.835 181.095L192.727 180.198C193.589 179.359 192.192 178.115 191.36 178.925L190.527 179.793C190.29 179.185 190.26 178.433 190.438 177.594C190.706 176.436 191.241 175.597 191.954 175.192L192.162 176.378C192.341 177.565 194.184 177.247 194.006 176.089L193.857 175.076C195.016 175.539 195.373 176.87 195.016 178.52Z" fill="#FFD243"/>
<path d="M137.105 276.795C135.857 276.795 109.607 276.708 104.167 269.502C103.869 269.849 103.721 270.254 103.721 270.717V274.537C103.721 282.09 125.571 284.087 137.105 284.087C148.64 284.087 170.49 282.09 170.49 274.537V270.717C170.49 270.283 170.341 269.849 170.044 269.502C164.604 276.708 138.324 276.795 137.105 276.795Z" fill="#004899"/>
<path d="M137.938 287.829V285.688H136.243V287.829C134.043 288.205 132.349 290.086 132.349 292.372C132.349 294.919 134.459 296.974 137.075 296.974C139.691 296.974 141.802 294.919 141.802 292.372C141.802 290.115 140.108 288.234 137.908 287.829H137.938Z" fill="#004899"/>
<path d="M158.48 243.547L155.775 225.142C155.062 220.136 152.059 215.766 147.63 213.162C145.935 212.178 144.092 211.541 142.19 211.165C142.19 211.02 142.219 210.904 142.219 210.789C142.219 206.708 139.96 203.496 137.106 203.496C134.252 203.496 131.993 206.708 131.993 210.789C131.993 210.904 132.023 211.02 132.023 211.165C130.12 211.541 128.277 212.178 126.582 213.162C122.123 215.766 119.15 220.136 118.437 225.142L115.732 243.547C114.424 252.489 110.648 260.303 104.881 267.364C108.27 272.515 125.274 274.454 137.106 274.454C148.938 274.454 165.912 272.515 169.331 267.364C163.534 260.303 159.789 252.489 158.48 243.547ZM140.554 210.904C139.96 210.846 139.365 210.789 138.771 210.789H135.412C134.847 210.789 134.252 210.846 133.658 210.904V210.789C133.658 207.692 135.233 205.088 137.106 205.088C138.979 205.088 140.554 207.692 140.554 210.789V210.904ZM151.019 230.785C149.086 223.608 143.973 217.097 141.09 215.535C148.403 215.766 153.1 224.419 151.019 230.785Z" fill="#004899"/>
<path d="M94.597 80.2122C93.6754 79.0257 93.1106 77.6945 92.7836 76.2476C92.5755 75.3505 92.6349 74.4823 92.9619 73.6431C93.0809 73.3248 93.2295 73.0065 93.3781 72.6881C93.4079 72.6013 93.4376 72.5145 93.4673 72.4277C93.3187 72.2541 93.1998 72.0804 93.0511 71.9068C92.3079 71.0097 91.4755 70.1415 90.6729 69.3023C89.6324 68.2027 88.6216 67.0741 87.7001 65.8876C87.5514 65.7139 87.4028 65.6271 87.165 65.5982C86.6299 65.5692 86.1245 65.5114 85.5894 65.4824C85.0543 65.4824 84.5192 65.4824 83.9841 65.5403C83.0328 65.6271 82.1112 65.8297 81.1896 66.148C81.041 66.2059 80.8924 66.2638 80.7437 66.2927C80.7437 66.3506 80.6843 66.4085 80.6843 66.4663C80.6545 66.7847 80.5951 67.1319 80.5951 67.4502C80.5356 68.521 80.5951 69.5628 80.7437 70.6335C80.9518 71.8489 81.2491 73.0354 81.7545 74.164C82.1707 75.0611 82.5571 75.9582 82.9139 76.8842C83.3598 78.0128 83.776 79.1415 84.103 80.299C84.3408 81.1672 84.4597 82.0643 84.43 82.9903C84.43 83.7427 84.2814 84.4951 84.103 85.2186C83.7463 86.7234 83.1814 88.1703 82.4977 89.5594C81.7247 91.0642 80.8626 92.54 79.8519 93.9002C79.0195 95.0288 77.9493 95.9259 76.671 96.5625C76.1953 96.794 75.7197 97.0255 75.2738 97.2281C74.6792 97.5175 74.0846 97.7779 73.5198 98.0673C73.1036 98.2699 72.7172 98.5303 72.3604 98.8197C72.1523 98.9934 71.9442 99.1959 71.7956 99.4564C71.4983 99.9194 71.4686 100.411 71.7064 100.932C71.7659 101.077 71.855 101.222 71.9739 101.366C72.3604 101.829 72.8658 102.177 73.4306 102.408C74.7089 102.929 76.1061 102.987 77.5034 103.016C78.0682 103.016 78.6628 102.958 79.1979 102.726C79.9708 102.35 80.4464 101.627 80.9221 100.932C81.4869 100.151 82.2896 99.5432 83.2111 99.167C83.9246 98.8776 84.6678 98.675 85.411 98.5014C85.5002 98.5014 85.6191 98.4435 85.7083 98.4146C85.7083 98.2988 85.7083 98.1831 85.738 98.0963C85.7975 97.5754 85.8272 97.0255 85.9164 96.5046C86.1245 95.1445 86.511 93.8133 86.9866 92.5111C88.6216 88.0256 91.1783 84.1189 94.5078 80.6752C94.597 80.5884 94.6564 80.5016 94.7159 80.3858C94.6862 80.3279 94.6564 80.2701 94.597 80.2411" fill="#004899"/>
<path d="M24.7955 30.4455C26.1035 29.9824 27.2926 29.1143 28.779 29.2011C29.9384 29.259 28.6304 28.2172 26.1332 28.8249C23.6361 29.4326 19.2363 27.9567 20.5146 24.9761C20.5146 24.9182 17.2446 26.5966 18.1067 29.1722C18.9391 31.603 22.8037 31.1979 24.8252 30.4744" fill="#004899"/>
<path d="M36.6012 105.856C35.858 105.856 35.1445 105.682 34.5202 105.335C33.9851 105.045 33.6581 104.611 33.5689 104.061C33.5095 103.743 33.5689 103.454 33.7176 103.077C33.8365 102.817 33.9851 102.557 34.223 102.267C34.6391 101.746 35.1742 101.283 35.8877 100.762C36.2147 100.502 36.5715 100.242 36.8985 100.01C37.0174 99.9232 37.1066 99.8364 37.1958 99.7495C37.7309 99.1997 38.1471 98.7367 38.5038 98.2447C38.8903 97.7238 39.1875 97.1451 39.4254 96.5084C39.6929 95.756 39.9902 95.0036 40.2577 94.2802C40.4361 93.7593 40.6442 93.2673 40.8226 92.7464C41.5955 90.6918 42.1603 88.6371 42.5171 86.6693C42.6954 85.6854 42.8441 84.6436 42.9927 83.6886L43.1414 82.7047C43.1711 82.5021 43.2008 82.2996 43.2008 82.097V81.9523C43.29 81.142 43.1414 80.3896 42.8144 79.6951L42.3684 78.798C41.982 77.9877 41.5658 77.1485 41.1496 76.3382C40.7037 75.47 40.4064 74.5729 40.2577 73.6758C40.2577 73.589 40.2577 73.5312 40.2577 73.4443C40.1388 71.1003 40.0496 68.5537 40.1388 66.036C40.1388 65.4573 40.1388 64.8785 40.1686 64.3287V63.692C40.1686 63.2869 40.1686 63.1422 40.0199 63.0554C39.9605 63.0264 39.901 62.9975 39.8415 62.9975C39.1281 62.9975 38.5335 67.7434 38.3254 70.6083C37.0768 70.1453 35.9174 69.827 34.877 69.6534C34.2527 69.5666 33.5689 69.5087 32.9149 69.5087C32.4987 69.5087 32.0528 69.5087 31.6366 69.5666C30.9529 69.6244 30.3286 69.7113 29.734 69.827C29.6746 69.827 29.6448 69.827 29.5854 69.8559C29.5556 69.8559 29.5259 69.8559 29.4962 69.8559C29.1692 69.9138 28.9314 70.1164 28.7827 70.4347C28.6935 70.6662 28.5152 70.8977 28.2476 71.1871C27.5936 71.8238 26.9396 72.2579 26.1964 72.5472C26.0477 72.6051 25.9288 72.663 25.7802 72.6919L25.5424 72.7787C25.3937 72.8366 25.3045 73.0103 25.3937 73.2418C25.3937 73.2996 25.4235 73.3575 25.4532 73.4154C25.8099 74.1678 26.1072 74.9781 26.3748 75.7015C26.5828 76.2803 26.7909 76.8302 26.999 77.38C26.999 77.38 27.326 78.2481 27.3855 78.4218C27.4747 78.6533 27.5639 78.8559 27.6531 79.0874C27.9206 79.8398 28.3071 80.5054 28.6638 81.0552C28.8422 81.3156 29.08 81.5182 29.3773 81.605L30.0016 81.7787C30.0016 81.7787 30.2097 81.8365 30.2989 81.8655C30.7448 82.0102 31.0123 82.2996 31.1015 82.7626C31.161 83.023 31.1907 83.2545 31.2204 83.515L31.3393 84.3542C31.3393 84.3542 31.3988 84.5278 31.488 84.5857L31.6961 84.7015C31.6961 84.7015 31.9636 84.8462 32.0825 84.933C32.796 85.3671 33.3014 86.0037 33.5987 86.8429C33.7473 87.2481 33.8068 87.6532 33.8068 88.1452C33.8068 88.9844 33.7473 89.621 33.6581 90.2287C33.5095 90.9233 33.2419 91.531 32.8257 92.0229C32.5285 92.3702 32.2014 92.5728 31.7853 92.6596C31.6663 92.6596 31.5772 92.6885 31.4582 92.6885C31.2501 92.6885 31.0421 92.6306 30.8637 92.5438C30.4475 92.3413 30.1502 92.0519 29.9421 91.6467C29.7637 91.2995 29.6448 90.8943 29.5556 90.6049C29.407 90.1419 29.2584 89.65 29.08 89.1291C28.9611 88.7529 28.753 88.3767 28.4557 87.9715L28.099 87.4506C27.8314 87.0455 27.5639 86.6693 27.2963 86.2641L26.4045 84.904C24.9181 82.5889 23.3722 80.216 21.8561 77.843C20.9642 76.425 20.1319 74.8623 19.1806 72.7787C18.7941 71.9395 18.5563 71.1871 18.4076 70.4058C18.3482 70.0296 18.2887 69.5666 18.3185 69.1035C18.3779 68.3801 18.6752 67.7434 19.2103 67.1357C19.6265 66.6727 20.1021 66.2386 20.4589 65.9492C20.994 65.5152 21.4994 65.0811 22.0345 64.647C22.2128 64.5023 22.4209 64.3576 22.6587 64.184C24.1154 63.229 25.5424 62.274 26.8801 61.2033C28.2773 60.1036 29.407 59.1197 30.4178 58.1069C30.9826 57.557 31.9339 56.3995 32.4987 55.705C33.0041 58.02 34.9364 63.8078 36.0661 64.0393C36.1553 64.0393 36.2742 63.9814 36.3336 63.9235C36.4526 63.7499 36.4823 63.7499 35.6796 61.319C35.0553 59.4091 34.2229 56.7757 34.0149 55.4734C33.8662 54.5474 33.7473 53.5924 33.6581 52.6085C33.5689 51.6825 33.5689 50.9301 33.6284 50.2356C33.7473 48.2388 34.104 46.2999 34.6689 44.4768C35.0553 43.1745 35.5607 41.9302 36.1553 40.5411C36.5715 39.5283 36.9877 38.5154 37.3444 37.4157C37.5525 36.7791 37.7606 36.0267 37.8498 35.2453C37.8795 34.8981 37.9092 34.5219 37.9092 34.1746C37.9092 34.0299 37.9092 33.8852 37.9092 33.7116C37.9092 33.6827 37.9092 33.6248 37.9984 33.5958C38.8903 33.3933 39.7524 32.9881 40.6739 32.3515C40.9415 32.1779 41.1793 32.0042 41.3874 31.8016L41.655 31.5991C41.655 31.5991 41.7441 31.5123 41.8036 31.4544L41.8928 31.3676C41.8928 31.3676 42.0117 31.1071 41.8928 30.9914C41.8333 30.9046 41.7441 30.8467 41.6252 30.8467C41.5955 30.8467 41.5658 30.8467 41.536 30.8467H41.4171C41.4171 30.8467 41.2982 30.9046 41.2388 30.9335C40.5847 31.2518 39.8713 31.4833 38.9794 31.7148C38.5632 31.8306 38.1173 31.9463 37.7011 32.0621L37.0174 32.2647C37.0174 32.2647 36.9282 32.2647 36.8687 32.2936C36.8093 32.2936 36.7498 32.3225 36.6904 32.3515C36.4823 32.4094 36.2742 32.4383 36.0661 32.4383C35.9472 32.4383 35.8283 32.4383 35.7094 32.4094C35.5904 32.4094 35.4418 32.3804 35.3229 32.3804C34.9959 32.3804 34.6689 32.4672 34.3121 32.6119C33.6878 32.9013 33.0933 33.1039 32.5285 33.2775C32.0231 33.4222 31.5177 33.4801 31.0123 33.538C30.8934 33.538 30.8042 33.538 30.6853 33.538C29.9421 33.538 29.2881 33.3643 28.7233 33.0171C28.099 32.6409 27.7422 32.1779 27.5639 31.5412C27.5044 31.3097 27.445 31.0203 27.5341 30.8467C27.5936 30.7309 27.772 30.6441 27.9503 30.5573L28.0395 30.4994C28.4557 30.2968 28.9016 30.1811 29.2584 30.1232C29.734 30.0364 30.2394 29.9496 30.715 29.8338H30.834C31.488 29.6891 32.1717 29.5155 32.796 29.1104C32.8257 29.1104 32.8555 29.0814 32.8852 29.0525C32.9446 29.0525 33.0041 28.9946 33.0338 28.9657C33.3906 28.7631 33.777 28.5605 34.1338 28.329C34.2229 28.2711 34.2824 28.2133 34.4013 28.0975C34.4608 28.0396 34.4905 27.9528 34.4905 27.866C34.4905 27.7792 34.4608 27.6924 34.4013 27.6345C34.1338 27.374 33.9851 27.3162 33.2122 27.0268C32.796 26.8821 32.4095 26.7663 32.0231 26.6506C31.6366 26.5348 31.2501 26.448 30.8042 26.3612C30.4178 26.2744 30.0908 26.2454 29.7935 26.2454C29.7043 26.2454 29.6151 26.2454 29.5259 26.2454C29.4367 26.2454 29.3773 26.3033 29.3178 26.3612C29.2584 26.4191 29.2286 26.5059 29.2286 26.5927C29.2584 27.0268 29.4367 27.403 29.9718 28.1554C29.7935 28.1264 29.5854 28.0686 29.3773 27.9818C28.7233 27.7502 28.3071 27.4898 27.9801 27.1425C27.8612 26.9978 27.6828 26.94 27.4747 26.8821C27.1774 26.8531 26.9099 26.7084 26.6126 26.4769C26.018 26.0429 25.6018 25.4641 25.364 24.7985C25.2451 24.4223 25.0964 23.9882 25.0667 23.5252C25.0667 23.3516 25.0667 23.1779 25.1262 22.9754C25.1856 22.7149 25.2154 22.4545 25.1559 22.194C25.1262 22.0783 25.0667 21.9625 25.0073 21.8468C24.9478 21.7599 24.8883 21.7021 24.7694 21.6153C24.71 21.5574 24.6505 21.4416 24.5911 21.268C24.4424 20.805 24.4722 20.3998 24.6208 19.9947C24.7992 19.5606 25.0667 19.358 25.4829 19.358C26.018 19.358 26.5234 19.2423 27.0585 19.0397C27.6531 18.8082 28.2773 18.6924 28.9016 18.6056C29.1989 18.5478 29.5259 18.5188 29.8232 18.4899C29.9718 18.4899 30.1205 18.4609 30.2691 18.432C30.8042 18.3741 31.3988 18.2873 32.0231 18.0558C32.5582 17.8532 33.0338 17.5928 33.45 17.2455C33.7473 16.9851 34.0149 16.7246 34.3121 16.4642L34.3716 16.4063C34.877 15.9433 35.3229 15.596 35.7688 15.3066C36.5715 14.7857 37.3147 14.4963 38.0876 14.3517C38.3254 14.3227 38.5632 14.2938 38.8011 14.2938C39.247 14.2938 39.6632 14.2938 40.1091 14.3517C40.5253 14.3806 40.9118 14.4095 41.2982 14.4095C41.7144 14.4095 42.1306 14.4095 42.5171 14.3517C43.1116 14.2938 43.7062 14.2359 44.271 14.0912C44.5089 14.0333 44.7169 13.9755 44.925 13.8886C45.4304 13.715 45.9061 13.5993 46.4114 13.5703C46.4709 13.5703 46.5304 13.5703 46.5898 13.5703C47.0357 13.5703 47.5114 13.6571 47.987 13.8018C48.3438 13.9176 48.7005 14.0912 49.0572 14.2359L49.2951 14.3517C49.2951 14.3517 49.5626 14.4674 49.7113 14.5253C49.8599 14.5832 49.9788 14.641 50.1274 14.7279C50.5734 14.9015 51.0193 15.0172 51.4652 15.0172C51.6138 15.0172 51.7328 15.0172 51.8814 15.0172C52.0003 15.0172 52.1192 15.0172 52.2381 15.0172H52.3273C52.6543 15.0172 52.9219 15.133 53.13 15.3645C53.3381 15.5671 53.4867 15.7986 53.6651 16.1459C54.1407 17.014 54.4975 17.969 54.7353 18.9818C54.8542 19.5027 54.9434 20.0526 54.9731 20.6024C54.9731 20.9786 54.9731 21.3837 54.8839 21.7599C54.7947 22.1361 54.5272 22.4545 54.2894 22.8017C53.2192 24.4512 52.3868 26.2165 51.2868 27.8371C50.6328 28.821 49.9194 29.5734 49.1167 30.1521C48.5221 30.5862 47.987 30.8756 47.4222 31.0203C47.2438 31.0782 47.0655 31.0782 46.7682 31.0782C46.352 31.0782 46.0844 30.9046 45.8763 30.5283C45.7277 30.239 45.6385 29.9206 45.6088 29.4866C45.5791 28.9078 45.6385 28.358 45.7277 27.866C45.7574 27.6055 45.8169 27.374 45.8466 27.1136C45.9358 26.6216 45.9953 26.1297 46.0547 25.6667C46.2331 24.1619 46.1439 22.9464 45.7574 21.8178C45.6682 21.5574 45.5493 21.2969 45.4601 21.0365L45.2223 20.4577C45.2223 20.4577 45.1034 20.1973 45.0737 20.0815C44.9548 19.7632 44.925 19.387 44.9845 19.0397C44.9845 18.924 44.9845 18.7793 44.9845 18.6635C44.9845 18.5188 44.8656 18.432 44.6575 18.4031C44.5386 18.4031 44.4494 18.4609 44.3899 18.5478C44.0927 19.0397 43.9737 19.5606 44.0332 20.0815C44.0629 20.3709 44.1224 20.6892 44.2116 20.9497L44.3008 21.239C44.4197 21.7021 44.5386 22.1361 44.598 22.5702V22.7149C44.598 22.7149 44.6278 22.9175 44.6278 23.0332C44.6278 23.5541 44.6278 24.0461 44.6278 24.567C44.6278 25.4062 44.4791 26.2165 44.3602 27.0268C44.2116 27.8371 44.0927 28.792 44.1521 29.7181C44.1818 30.21 44.3008 30.673 44.5089 31.0782C44.9548 32.0332 45.8466 32.583 46.9168 32.583C47.0357 32.583 47.1844 32.583 47.3033 32.583C47.987 32.4962 48.6708 32.2647 49.3545 31.8595C50.2464 31.3386 51.0787 30.6441 51.8517 29.7181C52.3571 29.1104 52.8327 28.4448 53.3381 27.5766L53.7245 26.911C53.9326 26.5638 54.1407 26.2165 54.3488 25.8403C54.4677 25.6377 54.6164 25.4352 54.7353 25.2326C55.0326 26.3612 55.1515 27.4898 55.2407 28.6473C55.3299 29.8049 55.4488 31.0492 55.5082 32.2647C55.5974 33.5669 55.6569 34.927 56.1622 36.1424C56.5784 37.1842 57.3216 38.0813 58.2729 38.718C58.2729 38.718 58.3324 38.7469 58.3621 38.7759C59.1053 39.2389 59.9674 39.5861 61.0079 39.8176C61.8403 40.0202 62.7619 40.136 63.8023 40.2228C64.8131 40.3096 65.8833 40.3385 66.9238 40.3385H67.013C67.8454 40.3385 68.975 40.3385 70.1047 40.2228C70.3425 40.2228 70.5803 40.1939 70.8182 40.1649C71.2938 40.136 71.7992 40.0781 72.2748 40.0492C73.0478 39.9623 73.791 39.8466 74.5639 39.7598L74.8909 39.7019C75.8125 39.5572 76.7638 39.4414 77.6853 39.2968C78.0421 39.2389 78.3691 39.181 78.7258 39.1231C79.142 39.0652 79.5285 39.0074 79.9447 38.9206C80.7473 38.8048 81.55 38.689 82.3526 38.5733H82.4715C82.9472 38.4865 83.4228 38.4286 83.8985 38.3707C84.5525 38.3128 85.2065 38.255 85.8605 38.1971C86.247 38.1681 86.6335 38.1392 87.0199 38.1103L87.674 38.0524C87.674 38.0524 87.7631 38.0524 87.7929 38.0524C88.1199 38.0524 88.4469 38.0524 88.7442 38.0524C89.4874 38.0524 90.2008 37.9945 90.944 37.9945H91.5683C92.4007 37.9945 92.7872 37.9945 93.7979 38.1681C93.9763 38.1971 94.8384 38.3707 95.3141 38.4865C96.7113 38.8916 97.5139 39.2099 98.1382 39.4704C98.8517 39.7598 99.3571 39.9623 100.308 40.136C101.26 40.3096 102.27 40.3675 103.281 40.3675C103.668 40.3675 104.084 40.3675 104.47 40.3385C107.443 40.1649 110.178 39.3546 112.586 37.9366C114.072 37.0395 115.321 35.9688 116.302 34.7245C117.224 33.538 117.848 32.2647 118.175 30.9046C118.442 29.7181 118.442 28.4737 118.175 27.2293C117.937 26.0139 117.372 24.8564 116.48 23.6988C115.529 22.4545 114.281 21.4127 112.705 20.5445C111.337 19.7921 109.851 19.2712 108.157 18.9529C107.027 18.7214 105.838 18.6056 104.678 18.6056C104.262 18.6056 103.816 18.6056 103.37 18.6635C100.011 18.895 97.0086 19.9079 94.4817 21.6442C94.3033 21.7599 94.1249 21.9046 93.9466 22.0493C93.8277 22.1361 93.7087 22.2519 93.5898 22.3387C93.3223 22.5413 93.0547 22.7149 92.7574 22.9175C92.6683 22.9754 92.5791 23.0043 92.5196 23.0043C92.3413 23.0043 92.1926 22.8307 92.1034 22.7439C91.9845 22.5992 91.9251 22.4255 91.9845 22.194C92.0143 21.9625 92.1034 21.731 92.2223 21.4706C92.5494 20.776 93.025 20.1683 93.6196 19.6474C94.0358 19.2712 94.4222 18.9529 94.8087 18.6925C96.0275 17.8532 97.3356 17.1008 98.7328 16.4931C99.8624 16.0012 101.052 15.6539 102.36 15.4224C103.37 15.2488 104.441 15.1909 105.659 15.1909C105.868 15.1909 106.076 15.1909 106.284 15.1909C107.859 15.2198 109.584 15.4224 111.635 15.8275C113.418 16.1748 114.964 16.6089 116.361 17.1587C117.907 17.7664 119.215 18.4609 120.345 19.3002C122.069 20.5735 123.437 22.2519 124.448 24.2776C125.072 25.5798 125.488 26.911 125.666 28.2711C125.993 30.6152 125.666 32.9592 124.804 35.1875C124.031 37.1842 122.872 39.0363 121.356 40.7437C120.107 42.1617 118.799 43.2903 117.372 44.1584C116.599 44.6504 115.707 45.0845 114.667 45.5475C112.527 46.5025 110.356 47.3417 108.216 48.0941C108.157 48.0941 108.067 48.152 108.008 48.1809L107.889 48.2388C107.889 48.2388 107.74 48.3256 107.711 48.4124C107.681 48.4992 107.681 48.5861 107.711 48.7018C107.711 48.7597 107.74 48.7886 107.77 48.8465C108.246 49.57 108.602 50.4092 108.84 51.451C109.048 52.3191 109.138 53.2162 109.167 54.1712C109.167 55.2998 109.167 56.168 109.078 56.9783C109.078 57.0651 109.078 57.1519 109.048 57.2387C108.721 58.6567 108.484 59.9589 108.335 61.1744C108.186 62.1872 108.097 63.2001 107.978 64.2708C107.83 65.602 107.77 66.9621 107.77 68.3511C107.77 69.7113 107.889 70.8399 108.067 71.9106C108.275 73.126 108.632 74.1678 109.108 75.0938C109.821 76.454 110.832 77.5536 112.14 78.3639C112.081 78.4797 112.021 78.5954 111.932 78.7401C111.754 79.0584 111.605 79.3478 111.456 79.6661C110.832 81.0552 110.267 82.5889 109.702 84.47C109.227 86.0616 108.87 87.5375 108.602 89.0133C108.305 90.7496 108.157 92.3702 108.127 93.9329C108.127 95.5245 108.246 97.0872 108.543 98.592C108.513 98.592 108.484 98.6209 108.454 98.6499C107.681 99.0261 106.967 99.4602 106.343 99.9521C105.689 100.473 105.273 101.139 105.095 101.949C105.035 102.238 104.946 102.499 104.857 102.788V102.933C104.857 102.933 104.738 103.164 104.678 103.309C104.47 103.83 104.173 104.177 103.697 104.409C103.311 104.611 102.865 104.785 102.3 104.987C101.527 105.248 100.814 105.393 100.1 105.479C99.6841 105.537 99.3571 105.537 99.0598 105.537C98.8814 105.537 98.7328 105.537 98.5544 105.537C98.049 105.479 97.6031 105.45 97.1572 105.306C96.9788 105.248 96.8599 105.19 96.741 105.132C96.3545 104.901 96.1167 104.582 96.0573 104.119C95.9681 103.569 96.0573 103.049 96.3843 102.499C96.5626 102.18 96.8005 101.891 97.0383 101.688C97.4545 101.312 97.8707 100.965 98.2869 100.647C98.9409 100.126 99.6544 99.6049 100.279 98.9971C100.754 98.5631 101.111 98.1869 101.408 97.7817C101.587 97.5502 101.735 97.2898 101.854 96.9714C102.538 95.2641 103.073 93.3541 103.489 91.0101C103.697 89.7947 103.846 88.7818 103.935 87.8847C104.024 86.9876 104.084 86.0037 103.935 85.0198C103.816 84.1516 103.578 83.2835 103.222 82.4443C102.746 81.3446 102.092 80.2449 101.17 79.0874C100.695 78.4507 100.13 77.8719 99.5652 77.2932C99.3273 77.0617 99.0895 76.8302 98.8517 76.5986C98.495 76.2514 98.1679 75.9331 97.8409 75.5858C97.3356 75.0649 96.8302 74.5151 96.2654 73.9074C95.6411 73.1839 94.8979 72.3447 94.2141 71.4765C93.7087 70.8109 93.1439 70.2032 92.6088 69.6244L92.4007 69.3929C91.5089 68.438 87.674 63.8946 86.8713 62.3608C85.9795 60.6535 85.3552 58.8593 85.0282 56.9783C84.8201 55.705 84.7309 54.6632 84.6714 53.8818V53.5635C84.5822 52.869 84.4336 51.422 84.3741 51.1616C84.3741 51.0458 84.2552 50.959 84.0769 50.9301C83.958 50.9301 83.8688 50.988 83.8093 51.0748C83.6904 51.2484 83.4823 52.0587 83.4228 52.4349C83.2445 53.795 83.2147 55.0394 83.3931 56.2548C83.6607 58.0779 84.1066 59.8432 84.7606 61.4348C85.1768 62.4477 85.6822 63.4316 86.2767 64.3865C85.9795 64.3865 85.6524 64.3576 85.3552 64.3576C84.1958 64.3576 82.9769 64.5023 81.6392 64.8496C79.0528 65.4862 76.3178 66.4122 73.2856 67.7145C70.5209 68.901 67.8156 70.1743 65.2293 71.4765C63.5348 72.3447 61.9295 73.0103 60.3836 73.5312C59.254 73.9074 57.6189 74.2836 55.7758 74.6019C55.8352 74.3125 55.8947 73.9074 55.9839 73.618C56.4001 72.2289 56.9946 70.8977 57.7378 69.6534C57.7378 69.6244 57.7973 69.5666 57.827 69.5376C57.9757 69.364 58.1837 69.0457 57.9162 68.8142C57.8567 68.7563 57.7676 68.7273 57.7081 68.7273C57.2622 68.7273 55.5974 70.753 55.3001 71.1871C53.8435 73.3575 52.7732 75.6437 52.0895 77.9877C51.8517 78.8269 51.6436 79.6372 51.4058 80.4764C51.2868 80.9105 51.1679 81.3446 51.049 81.8076C50.4545 84.0359 49.6518 86.351 48.6113 88.8686C48.5519 89.0133 48.4924 89.158 48.3735 89.3606C47.8978 90.2287 47.3925 91.068 46.8871 91.9361C46.8574 91.994 46.8276 92.0519 46.7682 92.1097C46.7385 92.1676 46.679 92.2255 46.6493 92.2834L46.5304 92.486C46.4114 92.6596 46.2925 92.8622 46.2033 93.0647C45.698 94.1644 45.1926 95.3509 44.9548 96.6242C44.8656 97.1161 44.7467 97.6081 44.6575 98.0711C44.5683 98.4473 44.4791 98.8525 44.4197 99.2287C44.3602 99.4891 44.3305 99.7496 44.3008 100.01C44.271 100.386 44.0927 100.733 43.8251 101.11C43.6765 101.312 43.4684 101.428 43.2305 101.544C43.0819 101.602 42.9035 101.66 42.7252 101.688C42.2495 101.804 41.8631 102.036 41.5658 102.383C41.2982 102.701 41.0901 103.02 40.882 103.338C40.7631 103.512 40.6442 103.714 40.555 103.888L40.4361 104.09C40.2875 104.322 40.1091 104.553 39.8415 104.756C39.0686 105.335 38.2065 105.711 37.2849 105.798C37.0768 105.798 36.8687 105.827 36.6607 105.827L36.6012 105.856ZM34.4013 20.6024C34.9067 20.6024 35.4121 20.6024 35.8877 20.6603C36.7201 20.7182 37.5822 20.776 38.3849 20.6603C39.6335 20.4866 40.7334 19.9657 41.1199 18.7214C41.209 18.4899 41.2685 18.1716 41.1199 17.94C40.9118 17.6507 40.3172 17.6507 39.9902 17.6507C39.4848 17.6507 38.9497 17.6796 38.4443 17.7954C38.3551 17.7954 38.266 17.8822 38.2065 17.969C38.1768 18.0558 38.1768 18.1426 38.2065 18.2294C38.266 18.3741 38.2957 18.4899 38.2957 18.6346C38.2957 19.1555 37.8795 19.5606 37.3444 19.5606C36.8687 19.5606 36.4823 19.2133 36.4228 18.7793C36.4228 18.6924 36.3634 18.6056 36.2742 18.5478C36.2147 18.5478 36.185 18.5188 36.1255 18.5188C36.0958 18.5188 36.0364 18.5188 36.0066 18.5188C34.6391 19.0687 33.4798 19.7342 33.123 20.1973C33.0338 20.313 33.0338 20.4288 33.123 20.5445C33.2419 20.7182 33.45 20.6892 33.6284 20.6603C33.8662 20.6603 34.0743 20.6603 34.3716 20.6603L34.4013 20.6024Z" fill="#004899"/>
<path d="M230.428 80.2122C229.506 79.0257 228.942 77.6945 228.615 76.2476C228.407 75.3505 228.466 74.4823 228.793 73.6431C228.912 73.3248 229.061 73.0065 229.209 72.6881C229.239 72.6013 229.269 72.5145 229.298 72.4277C229.15 72.2541 229.031 72.0804 228.882 71.9068C228.139 71.0097 227.307 70.1415 226.504 69.3023C225.463 68.2027 224.453 67.0741 223.531 65.8876C223.383 65.7139 223.234 65.6271 222.996 65.5982C222.461 65.5692 221.956 65.5114 221.42 65.4824C220.885 65.4824 220.35 65.4824 219.815 65.5403C218.864 65.6271 217.942 65.8297 217.021 66.148C216.872 66.2059 216.723 66.2638 216.575 66.2927C216.575 66.3506 216.515 66.4085 216.515 66.4663C216.486 66.7847 216.426 67.1319 216.426 67.4502C216.367 68.521 216.426 69.5628 216.575 70.6335C216.783 71.8489 217.08 73.0354 217.586 74.164C218.002 75.0611 218.388 75.9582 218.745 76.8842C219.191 78.0128 219.607 79.1415 219.934 80.299C220.172 81.1672 220.291 82.0643 220.261 82.9903C220.261 83.7427 220.112 84.4951 219.934 85.2186C219.577 86.7234 219.012 88.1703 218.329 89.5594C217.556 91.0642 216.694 92.54 215.683 93.9002C214.851 95.0288 213.78 95.9259 212.502 96.5625C212.026 96.794 211.551 97.0255 211.105 97.2281C210.51 97.5175 209.916 97.7779 209.351 98.0673C208.935 98.2699 208.548 98.5303 208.191 98.8197C207.983 98.9934 207.775 99.1959 207.627 99.4564C207.329 99.9194 207.3 100.411 207.537 100.932C207.597 101.077 207.686 101.222 207.805 101.366C208.191 101.829 208.697 102.177 209.262 102.408C210.54 102.929 211.937 102.987 213.334 103.016C213.899 103.016 214.494 102.958 215.029 102.726C215.802 102.35 216.278 101.627 216.753 100.932C217.318 100.151 218.121 99.5432 219.042 99.167C219.756 98.8776 220.499 98.675 221.242 98.5014C221.331 98.5014 221.45 98.4435 221.539 98.4146C221.539 98.2988 221.539 98.1831 221.569 98.0963C221.629 97.5754 221.658 97.0255 221.747 96.5046C221.956 95.1445 222.342 93.8133 222.818 92.5111C224.453 88.0256 227.009 84.1189 230.339 80.6752C230.428 80.5884 230.488 80.5016 230.547 80.3858C230.517 80.3279 230.488 80.2701 230.428 80.2411" fill="#004899"/>
<path d="M160.628 30.4455C161.937 29.9824 163.126 29.1143 164.612 29.2011C165.771 29.259 164.463 28.2172 161.966 28.8249C159.469 29.4326 155.069 27.9567 156.348 24.9761C156.348 24.9182 153.078 26.5966 153.94 29.1722C154.772 31.603 158.637 31.1979 160.658 30.4744" fill="#004899"/>
<path d="M172.434 105.856C171.691 105.856 170.978 105.682 170.353 105.335C169.818 105.045 169.491 104.611 169.402 104.061C169.342 103.743 169.402 103.454 169.551 103.077C169.669 102.817 169.818 102.557 170.056 102.267C170.472 101.746 171.007 101.283 171.721 100.762C172.048 100.502 172.404 100.242 172.731 100.01C172.85 99.9232 172.94 99.8364 173.029 99.7495C173.564 99.1997 173.98 98.7367 174.337 98.2447C174.723 97.7238 175.021 97.1451 175.258 96.5084C175.526 95.756 175.823 95.0036 176.091 94.2802C176.269 93.7593 176.477 93.2673 176.656 92.7464C177.429 90.6918 177.993 88.6371 178.35 86.6693C178.528 85.6854 178.677 84.6436 178.826 83.6886L178.974 82.7047C179.004 82.5021 179.034 82.2996 179.034 82.097V81.9523C179.123 81.142 178.974 80.3896 178.647 79.6951L178.201 78.798C177.815 77.9877 177.399 77.1485 176.983 76.3382C176.537 75.47 176.239 74.5729 176.091 73.6758C176.091 73.589 176.091 73.5312 176.091 73.4443C175.972 71.1003 175.883 68.5537 175.972 66.036C175.972 65.4573 175.972 64.8785 176.002 64.3287V63.692C176.002 63.2869 176.002 63.1422 175.853 63.0554C175.793 63.0264 175.734 62.9975 175.675 62.9975C174.961 62.9975 174.367 67.7434 174.158 70.6083C172.91 70.1453 171.75 69.827 170.71 69.6534C170.086 69.5666 169.402 69.5087 168.748 69.5087C168.332 69.5087 167.886 69.5087 167.47 69.5666C166.786 69.6244 166.162 69.7113 165.567 69.827C165.508 69.827 165.478 69.827 165.418 69.8559C165.389 69.8559 165.359 69.8559 165.329 69.8559C165.002 69.9138 164.764 70.1164 164.616 70.4347C164.527 70.6662 164.348 70.8977 164.081 71.1871C163.427 71.8238 162.773 72.2579 162.029 72.5472C161.881 72.6051 161.762 72.663 161.613 72.6919L161.375 72.7787C161.227 72.8366 161.138 73.0103 161.227 73.2418C161.227 73.2996 161.256 73.3575 161.286 73.4154C161.643 74.1678 161.94 74.9781 162.208 75.7015C162.416 76.2803 162.624 76.8302 162.832 77.38C162.832 77.38 163.159 78.2481 163.219 78.4218C163.308 78.6533 163.397 78.8559 163.486 79.0874C163.754 79.8398 164.14 80.5054 164.497 81.0552C164.675 81.3156 164.913 81.5182 165.21 81.605L165.835 81.7787C165.835 81.7787 166.043 81.8365 166.132 81.8655C166.578 82.0102 166.845 82.2996 166.935 82.7626C166.994 83.023 167.024 83.2545 167.053 83.515L167.172 84.3542C167.172 84.3542 167.232 84.5278 167.321 84.5857L167.529 84.7015C167.529 84.7015 167.797 84.8462 167.916 84.933C168.629 85.3671 169.134 86.0037 169.432 86.8429C169.58 87.2481 169.64 87.6532 169.64 88.1452C169.64 88.9844 169.58 89.621 169.491 90.2287C169.342 90.9233 169.075 91.531 168.659 92.0229C168.361 92.3702 168.034 92.5728 167.618 92.6596C167.499 92.6596 167.41 92.6885 167.291 92.6885C167.083 92.6885 166.875 92.6306 166.697 92.5438C166.281 92.3413 165.983 92.0519 165.775 91.6467C165.597 91.2995 165.478 90.8943 165.389 90.6049C165.24 90.1419 165.091 89.65 164.913 89.1291C164.794 88.7529 164.586 88.3767 164.289 87.9715L163.932 87.4506C163.664 87.0455 163.397 86.6693 163.129 86.2641L162.237 84.904C160.751 82.5889 159.205 80.216 157.689 77.843C156.797 76.425 155.965 74.8623 155.014 72.7787C154.627 71.9395 154.389 71.1871 154.241 70.4058C154.181 70.0296 154.122 69.5666 154.151 69.1035C154.211 68.3801 154.508 67.7434 155.043 67.1357C155.46 66.6727 155.935 66.2386 156.292 65.9492C156.827 65.5152 157.332 65.0811 157.867 64.647C158.046 64.5023 158.254 64.3576 158.492 64.184C159.948 63.229 161.375 62.274 162.713 61.2033C164.11 60.1036 165.24 59.1197 166.251 58.1069C166.816 57.557 167.767 56.3995 168.332 55.705C168.837 58.02 170.769 63.8078 171.899 64.0393C171.988 64.0393 172.107 63.9814 172.167 63.9235C172.286 63.7499 172.315 63.7499 171.513 61.319C170.888 59.4091 170.056 56.7757 169.848 55.4734C169.699 54.5474 169.58 53.5924 169.491 52.6085C169.402 51.6825 169.402 50.9301 169.461 50.2356C169.58 48.2388 169.937 46.2999 170.502 44.4768C170.888 43.1745 171.394 41.9302 171.988 40.5411C172.404 39.5283 172.821 38.5154 173.177 37.4157C173.386 36.7791 173.594 36.0267 173.683 35.2453C173.713 34.8981 173.742 34.5219 173.742 34.1746C173.742 34.0299 173.742 33.8852 173.742 33.7116C173.742 33.6827 173.742 33.6248 173.831 33.5958C174.723 33.3933 175.585 32.9881 176.507 32.3515C176.774 32.1779 177.012 32.0042 177.22 31.8016L177.488 31.5991C177.488 31.5991 177.577 31.5123 177.637 31.4544L177.726 31.3676C177.726 31.3676 177.845 31.1071 177.726 30.9914C177.666 30.9046 177.577 30.8467 177.458 30.8467C177.429 30.8467 177.399 30.8467 177.369 30.8467H177.25C177.25 30.8467 177.131 30.9046 177.072 30.9335C176.418 31.2518 175.704 31.4833 174.812 31.7148C174.396 31.8306 173.95 31.9463 173.534 32.0621L172.85 32.2647C172.85 32.2647 172.761 32.2647 172.702 32.2936C172.642 32.2936 172.583 32.3225 172.523 32.3515C172.315 32.4094 172.107 32.4383 171.899 32.4383C171.78 32.4383 171.661 32.4383 171.542 32.4094C171.423 32.4094 171.275 32.3804 171.156 32.3804C170.829 32.3804 170.502 32.4672 170.145 32.6119C169.521 32.9013 168.926 33.1039 168.361 33.2775C167.856 33.4222 167.351 33.4801 166.845 33.538C166.726 33.538 166.637 33.538 166.518 33.538C165.775 33.538 165.121 33.3643 164.556 33.0171C163.932 32.6409 163.575 32.1779 163.397 31.5412C163.337 31.3097 163.278 31.0203 163.367 30.8467C163.427 30.7309 163.605 30.6441 163.783 30.5573L163.873 30.4994C164.289 30.2968 164.735 30.1811 165.091 30.1232C165.567 30.0364 166.072 29.9496 166.548 29.8338H166.667C167.321 29.6891 168.005 29.5155 168.629 29.1104C168.659 29.1104 168.688 29.0814 168.718 29.0525C168.778 29.0525 168.837 28.9946 168.867 28.9657C169.224 28.7631 169.61 28.5605 169.967 28.329C170.056 28.2711 170.115 28.2133 170.234 28.0975C170.294 28.0396 170.324 27.9528 170.324 27.866C170.324 27.7792 170.294 27.6924 170.234 27.6345C169.967 27.374 169.818 27.3162 169.045 27.0268C168.629 26.8821 168.243 26.7663 167.856 26.6506C167.47 26.5348 167.083 26.448 166.637 26.3612C166.251 26.2744 165.924 26.2454 165.626 26.2454C165.537 26.2454 165.448 26.2454 165.359 26.2454C165.27 26.2454 165.21 26.3033 165.151 26.3612C165.091 26.4191 165.062 26.5059 165.062 26.5927C165.091 27.0268 165.27 27.403 165.805 28.1554C165.626 28.1264 165.418 28.0686 165.21 27.9818C164.556 27.7502 164.14 27.4898 163.813 27.1425C163.694 26.9978 163.516 26.94 163.308 26.8821C163.01 26.8531 162.743 26.7084 162.446 26.4769C161.851 26.0429 161.435 25.4641 161.197 24.7985C161.078 24.4223 160.929 23.9882 160.9 23.5252C160.9 23.3516 160.9 23.1779 160.959 22.9754C161.019 22.7149 161.048 22.4545 160.989 22.194C160.959 22.0783 160.9 21.9625 160.84 21.8468C160.781 21.7599 160.721 21.7021 160.602 21.6153C160.543 21.5574 160.484 21.4416 160.424 21.268C160.275 20.805 160.305 20.3998 160.454 19.9947C160.632 19.5606 160.9 19.358 161.316 19.358C161.851 19.358 162.356 19.2423 162.892 19.0397C163.486 18.8082 164.11 18.6924 164.735 18.6056C165.032 18.5478 165.359 18.5188 165.656 18.4899C165.805 18.4899 165.953 18.4609 166.102 18.432C166.637 18.3741 167.232 18.2873 167.856 18.0558C168.391 17.8532 168.867 17.5928 169.283 17.2455C169.58 16.9851 169.848 16.7246 170.145 16.4642L170.205 16.4063C170.71 15.9433 171.156 15.596 171.602 15.3066C172.404 14.7857 173.148 14.4963 173.921 14.3517C174.158 14.3227 174.396 14.2938 174.634 14.2938C175.08 14.2938 175.496 14.2938 175.942 14.3517C176.358 14.3806 176.745 14.4095 177.131 14.4095C177.547 14.4095 177.964 14.4095 178.35 14.3517C178.945 14.2938 179.539 14.2359 180.104 14.0912C180.342 14.0333 180.55 13.9755 180.758 13.8886C181.263 13.715 181.739 13.5993 182.244 13.5703C182.304 13.5703 182.363 13.5703 182.423 13.5703C182.869 13.5703 183.344 13.6571 183.82 13.8018C184.177 13.9176 184.534 14.0912 184.89 14.2359L185.128 14.3517C185.128 14.3517 185.396 14.4674 185.544 14.5253C185.693 14.5832 185.812 14.641 185.96 14.7279C186.406 14.9015 186.852 15.0172 187.298 15.0172C187.447 15.0172 187.566 15.0172 187.714 15.0172C187.833 15.0172 187.952 15.0172 188.071 15.0172H188.16C188.487 15.0172 188.755 15.133 188.963 15.3645C189.171 15.5671 189.32 15.7986 189.498 16.1459C189.974 17.014 190.33 17.969 190.568 18.9818C190.687 19.5027 190.776 20.0526 190.806 20.6024C190.806 20.9786 190.806 21.3837 190.717 21.7599C190.628 22.1361 190.36 22.4545 190.122 22.8017C189.052 24.4512 188.22 26.2165 187.12 27.8371C186.466 28.821 185.752 29.5734 184.95 30.1521C184.355 30.5862 183.82 30.8756 183.255 31.0203C183.077 31.0782 182.898 31.0782 182.601 31.0782C182.185 31.0782 181.917 30.9046 181.709 30.5283C181.561 30.239 181.472 29.9206 181.442 29.4866C181.412 28.9078 181.472 28.358 181.561 27.866C181.59 27.6055 181.65 27.374 181.68 27.1136C181.769 26.6216 181.828 26.1297 181.888 25.6667C182.066 24.1619 181.977 22.9464 181.59 21.8178C181.501 21.5574 181.382 21.2969 181.293 21.0365L181.055 20.4577C181.055 20.4577 180.936 20.1973 180.907 20.0815C180.788 19.7632 180.758 19.387 180.818 19.0397C180.818 18.924 180.818 18.7793 180.818 18.6635C180.818 18.5188 180.699 18.432 180.49 18.4031C180.372 18.4031 180.282 18.4609 180.223 18.5478C179.926 19.0397 179.807 19.5606 179.866 20.0815C179.896 20.3709 179.955 20.6892 180.045 20.9497L180.134 21.239C180.253 21.7021 180.372 22.1361 180.431 22.5702V22.7149C180.431 22.7149 180.461 22.9175 180.461 23.0332C180.461 23.5541 180.461 24.0461 180.461 24.567C180.461 25.4062 180.312 26.2165 180.193 27.0268C180.045 27.8371 179.926 28.792 179.985 29.7181C180.015 30.21 180.134 30.673 180.342 31.0782C180.788 32.0332 181.68 32.583 182.75 32.583C182.869 32.583 183.017 32.583 183.136 32.583C183.82 32.4962 184.504 32.2647 185.188 31.8595C186.079 31.3386 186.912 30.6441 187.685 29.7181C188.19 29.1104 188.666 28.4448 189.171 27.5766L189.558 26.911C189.766 26.5638 189.974 26.2165 190.182 25.8403C190.301 25.6377 190.449 25.4352 190.568 25.2326C190.866 26.3612 190.984 27.4898 191.074 28.6473C191.163 29.8049 191.282 31.0492 191.341 32.2647C191.43 33.5669 191.49 34.927 191.995 36.1424C192.411 37.1842 193.155 38.0813 194.106 38.718C194.106 38.718 194.165 38.7469 194.195 38.7759C194.938 39.2389 195.8 39.5861 196.841 39.8176C197.673 40.0202 198.595 40.136 199.635 40.2228C200.646 40.3096 201.716 40.3385 202.757 40.3385H202.846C203.678 40.3385 204.808 40.3385 205.938 40.2228C206.176 40.2228 206.413 40.1939 206.651 40.1649C207.127 40.136 207.632 40.0781 208.108 40.0492C208.881 39.9623 209.624 39.8466 210.397 39.7598L210.724 39.7019C211.645 39.5572 212.597 39.4414 213.518 39.2968C213.875 39.2389 214.202 39.181 214.559 39.1231C214.975 39.0652 215.361 39.0074 215.778 38.9206C216.58 38.8048 217.383 38.689 218.186 38.5733H218.305C218.78 38.4865 219.256 38.4286 219.732 38.3707C220.386 38.3128 221.04 38.255 221.694 38.1971C222.08 38.1681 222.466 38.1392 222.853 38.1103L223.507 38.0524C223.507 38.0524 223.596 38.0524 223.626 38.0524C223.953 38.0524 224.28 38.0524 224.577 38.0524C225.32 38.0524 226.034 37.9945 226.777 37.9945H227.401C228.234 37.9945 228.62 37.9945 229.631 38.1681C229.809 38.1971 230.671 38.3707 231.147 38.4865C232.544 38.8916 233.347 39.2099 233.971 39.4704C234.685 39.7598 235.19 39.9623 236.141 40.136C237.093 40.3096 238.103 40.3675 239.114 40.3675C239.501 40.3675 239.917 40.3675 240.303 40.3385C243.276 40.1649 246.011 39.3546 248.419 37.9366C249.905 37.0395 251.154 35.9688 252.135 34.7245C253.057 33.538 253.681 32.2647 254.008 30.9046C254.275 29.7181 254.275 28.4737 254.008 27.2293C253.77 26.0139 253.205 24.8564 252.313 23.6988C251.362 22.4545 250.114 21.4127 248.538 20.5445C247.17 19.7921 245.684 19.2712 243.99 18.9529C242.86 18.7214 241.671 18.6056 240.511 18.6056C240.095 18.6056 239.649 18.6056 239.203 18.6635C235.844 18.895 232.842 19.9079 230.315 21.6442C230.136 21.7599 229.958 21.9046 229.78 22.0493C229.661 22.1361 229.542 22.2519 229.423 22.3387C229.155 22.5413 228.888 22.7149 228.59 22.9175C228.501 22.9754 228.412 23.0043 228.353 23.0043C228.174 23.0043 228.026 22.8307 227.936 22.7439C227.818 22.5992 227.758 22.4255 227.818 22.194C227.847 21.9625 227.936 21.731 228.055 21.4706C228.382 20.776 228.858 20.1683 229.453 19.6474C229.869 19.2712 230.255 18.9529 230.642 18.6925C231.861 17.8532 233.169 17.1008 234.566 16.4931C235.695 16.0012 236.885 15.6539 238.193 15.4224C239.203 15.2488 240.274 15.1909 241.492 15.1909C241.701 15.1909 241.909 15.1909 242.117 15.1909C243.692 15.2198 245.417 15.4224 247.468 15.8275C249.251 16.1748 250.797 16.6089 252.195 17.1587C253.74 17.7664 255.048 18.4609 256.178 19.3002C257.902 20.5735 259.27 22.2519 260.281 24.2776C260.905 25.5798 261.321 26.911 261.499 28.2711C261.826 30.6152 261.499 32.9592 260.637 35.1875C259.864 37.1842 258.705 39.0363 257.189 40.7437C255.94 42.1617 254.632 43.2903 253.205 44.1584C252.432 44.6504 251.54 45.0845 250.5 45.5475C248.36 46.5025 246.189 47.3417 244.049 48.0941C243.99 48.0941 243.9 48.152 243.841 48.1809L243.722 48.2388C243.722 48.2388 243.573 48.3256 243.544 48.4124C243.514 48.4992 243.514 48.5861 243.544 48.7018C243.544 48.7597 243.573 48.7886 243.603 48.8465C244.079 49.57 244.436 50.4092 244.673 51.451C244.881 52.3191 244.971 53.2162 245 54.1712C245 55.2998 245 56.168 244.911 56.9783C244.911 57.0651 244.911 57.1519 244.881 57.2387C244.554 58.6567 244.317 59.9589 244.168 61.1744C244.019 62.1872 243.93 63.2001 243.811 64.2708C243.663 65.602 243.603 66.9621 243.603 68.3511C243.603 69.7113 243.722 70.8399 243.9 71.9106C244.108 73.126 244.465 74.1678 244.941 75.0938C245.654 76.454 246.665 77.5536 247.973 78.3639C247.914 78.4797 247.854 78.5954 247.765 78.7401C247.587 79.0584 247.438 79.3478 247.289 79.6661C246.665 81.0552 246.1 82.5889 245.535 84.47C245.06 86.0616 244.703 87.5375 244.436 89.0133C244.138 90.7496 243.99 92.3702 243.96 93.9329C243.96 95.5245 244.079 97.0872 244.376 98.592C244.346 98.592 244.317 98.6209 244.287 98.6499C243.514 99.0261 242.8 99.4602 242.176 99.9521C241.522 100.473 241.106 101.139 240.928 101.949C240.868 102.238 240.779 102.499 240.69 102.788V102.933C240.69 102.933 240.571 103.164 240.511 103.309C240.303 103.83 240.006 104.177 239.53 104.409C239.144 104.611 238.698 104.785 238.133 104.987C237.36 105.248 236.647 105.393 235.933 105.479C235.517 105.537 235.19 105.537 234.893 105.537C234.714 105.537 234.566 105.537 234.387 105.537C233.882 105.479 233.436 105.45 232.99 105.306C232.812 105.248 232.693 105.19 232.574 105.132C232.188 104.901 231.95 104.582 231.89 104.119C231.801 103.569 231.89 103.049 232.217 102.499C232.396 102.18 232.633 101.891 232.871 101.688C233.287 101.312 233.704 100.965 234.12 100.647C234.774 100.126 235.487 99.6049 236.112 98.9971C236.587 98.5631 236.944 98.1869 237.241 97.7817C237.42 97.5502 237.568 97.2898 237.687 96.9714C238.371 95.2641 238.906 93.3541 239.322 91.0101C239.53 89.7947 239.679 88.7818 239.768 87.8847C239.857 86.9876 239.917 86.0037 239.768 85.0198C239.649 84.1516 239.411 83.2835 239.055 82.4443C238.579 81.3446 237.925 80.2449 237.003 79.0874C236.528 78.4507 235.963 77.8719 235.398 77.2932C235.16 77.0617 234.923 76.8302 234.685 76.5986C234.328 76.2514 234.001 75.9331 233.674 75.5858C233.169 75.0649 232.663 74.5151 232.098 73.9074C231.474 73.1839 230.731 72.3447 230.047 71.4765C229.542 70.8109 228.977 70.2032 228.442 69.6244L228.234 69.3929C227.342 68.438 223.507 63.8946 222.704 62.3608C221.812 60.6535 221.188 58.8593 220.861 56.9783C220.653 55.705 220.564 54.6632 220.504 53.8818V53.5635C220.415 52.869 220.267 51.422 220.207 51.1616C220.207 51.0458 220.088 50.959 219.91 50.9301C219.791 50.9301 219.702 50.988 219.642 51.0748C219.523 51.2484 219.315 52.0587 219.256 52.4349C219.077 53.795 219.048 55.0394 219.226 56.2548C219.494 58.0779 219.94 59.8432 220.594 61.4348C221.01 62.4477 221.515 63.4316 222.11 64.3865C221.812 64.3865 221.485 64.3576 221.188 64.3576C220.029 64.3576 218.81 64.5023 217.472 64.8496C214.886 65.4862 212.151 66.4122 209.119 67.7145C206.354 68.901 203.649 70.1743 201.062 71.4765C199.368 72.3447 197.762 73.0103 196.217 73.5312C195.087 73.9074 193.452 74.2836 191.609 74.6019C191.668 74.3125 191.728 73.9074 191.817 73.618C192.233 72.2289 192.828 70.8977 193.571 69.6534C193.571 69.6244 193.63 69.5666 193.66 69.5376C193.809 69.364 194.017 69.0457 193.749 68.8142C193.69 68.7563 193.601 68.7273 193.541 68.7273C193.095 68.7273 191.43 70.753 191.133 71.1871C189.676 73.3575 188.606 75.6437 187.923 77.9877C187.685 78.8269 187.477 79.6372 187.239 80.4764C187.12 80.9105 187.001 81.3446 186.882 81.8076C186.287 84.0359 185.485 86.351 184.444 88.8686C184.385 89.0133 184.325 89.158 184.207 89.3606C183.731 90.2287 183.225 91.068 182.72 91.9361C182.69 91.994 182.661 92.0519 182.601 92.1097C182.571 92.1676 182.512 92.2255 182.482 92.2834L182.363 92.486C182.244 92.6596 182.126 92.8622 182.036 93.0647C181.531 94.1644 181.026 95.3509 180.788 96.6242C180.699 97.1161 180.58 97.6081 180.49 98.0711C180.401 98.4473 180.312 98.8525 180.253 99.2287C180.193 99.4891 180.163 99.7496 180.134 100.01C180.104 100.386 179.926 100.733 179.658 101.11C179.509 101.312 179.301 101.428 179.064 101.544C178.915 101.602 178.737 101.66 178.558 101.688C178.083 101.804 177.696 102.036 177.399 102.383C177.131 102.701 176.923 103.02 176.715 103.338C176.596 103.512 176.477 103.714 176.388 103.888L176.269 104.09C176.12 104.322 175.942 104.553 175.675 104.756C174.902 105.335 174.04 105.711 173.118 105.798C172.91 105.798 172.702 105.827 172.494 105.827L172.434 105.856ZM170.234 20.6024C170.74 20.6024 171.245 20.6024 171.721 20.6603C172.553 20.7182 173.415 20.776 174.218 20.6603C175.466 20.4866 176.566 19.9657 176.953 18.7214C177.042 18.4899 177.102 18.1716 176.953 17.94C176.745 17.6507 176.15 17.6507 175.823 17.6507C175.318 17.6507 174.783 17.6796 174.277 17.7954C174.188 17.7954 174.099 17.8822 174.04 17.969C174.01 18.0558 174.01 18.1426 174.04 18.2294C174.099 18.3741 174.129 18.4899 174.129 18.6346C174.129 19.1555 173.713 19.5606 173.177 19.5606C172.702 19.5606 172.315 19.2133 172.256 18.7793C172.256 18.6924 172.196 18.6056 172.107 18.5478C172.048 18.5478 172.018 18.5188 171.959 18.5188C171.929 18.5188 171.869 18.5188 171.84 18.5188C170.472 19.0687 169.313 19.7342 168.956 20.1973C168.867 20.313 168.867 20.4288 168.956 20.5445C169.075 20.7182 169.283 20.6892 169.461 20.6603C169.699 20.6603 169.907 20.6603 170.205 20.6603L170.234 20.6024Z" fill="#004899"/>
<path d="M324.684 118.182H328.579V136.306H337.421V139.58H324.684V118.182Z" fill="#004899"/>
<path d="M340.032 135.29C340.032 131.758 342.842 129.983 349.461 129.26C349.392 127.623 348.737 126.245 346.582 126.245C345.014 126.245 343.497 126.899 342.066 127.744L340.687 125.194C342.463 124.074 344.755 123.092 347.306 123.092C351.305 123.092 353.339 125.573 353.339 130.069V139.597H350.202L349.874 137.822H349.736C348.289 139.063 346.72 139.976 344.824 139.976C342.014 139.976 340.049 138.081 340.049 135.255L340.032 135.29ZM349.478 135.29V131.878C345.083 132.395 343.773 133.377 343.773 135.014C343.773 136.392 344.686 136.909 345.996 136.909C347.306 136.909 348.289 136.392 349.461 135.273L349.478 135.29Z" fill="#004899"/>
<path d="M356.794 131.593C356.794 126.321 360.069 123.116 363.602 123.116C365.395 123.116 366.55 123.805 367.791 124.891L367.636 122.306V116.518H371.497V139.621H368.36L368.067 137.881H367.929C366.757 139.053 365.119 140 363.413 140C359.379 140 356.794 136.899 356.794 131.593ZM367.636 135.021V127.63C366.55 126.648 365.498 126.321 364.43 126.321C362.43 126.321 360.758 128.216 360.758 131.524C360.758 134.987 362.068 136.796 364.361 136.796C365.567 136.796 366.619 136.279 367.636 135.021Z" fill="#004899"/>
<path d="M375.115 145.85L375.874 142.938C376.339 143.076 376.632 143.093 376.994 143.093C378.666 143.093 379.649 141.973 380.166 140.406L380.459 139.389L374.133 123.521H378.063L380.786 131.343C381.286 132.756 381.734 134.358 382.2 135.892H382.337C382.734 134.393 383.165 132.808 383.544 131.343L385.905 123.521H389.646L383.854 140.32C382.51 143.989 380.803 146.212 377.27 146.212C376.391 146.212 375.77 146.074 375.133 145.85H375.115Z" fill="#004899"/>
<path d="M398.707 118.182H403.292L406.963 128.657C407.428 130.035 407.808 131.276 408.204 132.843H408.342C408.738 131.276 409.066 130.035 409.514 128.657L413.185 118.182H417.77V139.58H414.168V129.828C414.168 127.795 414.495 124.849 414.754 122.885H414.616L412.91 128.054L409.445 137.616H406.894L403.481 128.054L401.775 122.885H401.637C401.895 124.849 402.223 127.795 402.223 129.828V139.58H398.689V118.182H398.707Z" fill="#004899"/>
<path d="M421.731 135.29C421.731 131.758 424.541 129.983 431.16 129.26C431.091 127.623 430.436 126.245 428.281 126.245C426.713 126.245 425.196 126.899 423.765 127.744L422.386 125.194C424.162 124.074 426.454 123.092 429.005 123.092C433.004 123.092 435.038 125.573 435.038 130.069V139.597H431.901L431.574 137.822H431.436C429.988 139.063 428.419 139.976 426.523 139.976C423.714 139.976 421.749 138.081 421.749 135.255L421.731 135.29ZM431.16 135.29V131.878C426.765 132.395 425.455 133.377 425.455 135.014C425.455 136.392 426.368 136.909 427.678 136.909C428.988 136.909 429.971 136.392 431.143 135.273L431.16 135.29Z" fill="#004899"/>
<path d="M439.327 123.51H442.499L442.792 126.387H442.895C444.067 124.285 445.774 123.113 447.48 123.113C448.307 123.113 448.825 123.251 449.307 123.441L448.514 126.749C448.032 126.611 447.635 126.559 446.98 126.559C445.705 126.559 444.171 127.403 443.223 129.867V139.618H439.327V123.51Z" fill="#004899"/>
<path d="M450.398 142.53C450.398 141.152 451.243 140.015 452.725 139.102V138.964C451.898 138.447 451.243 137.585 451.243 136.276C451.243 135.036 452.087 133.95 453.053 133.295V133.158C451.932 132.331 450.915 130.797 450.915 128.902C450.915 125.198 453.932 123.113 457.293 123.113C458.172 123.113 459.034 123.268 459.689 123.51H465.446V126.387H462.567C463.05 126.973 463.446 127.955 463.446 129.04C463.446 132.606 460.688 134.501 457.293 134.501C456.603 134.501 455.845 134.364 455.138 134.105C454.673 134.501 454.38 134.898 454.38 135.604C454.38 136.483 455.035 137.017 456.965 137.017H459.809C463.636 137.017 465.704 138.223 465.704 141.014C465.704 144.184 462.36 146.717 457.086 146.717C453.259 146.717 450.381 145.338 450.381 142.53H450.398ZM461.998 141.651C461.998 140.445 461.016 140.084 459.223 140.084H457.069C456.19 140.084 455.5 140.015 454.88 139.86C454.035 140.514 453.673 141.203 453.673 141.962C453.673 143.409 455.242 144.219 457.741 144.219C460.24 144.219 462.033 143.047 462.033 141.669L461.998 141.651ZM460.033 128.919C460.033 126.921 458.861 125.801 457.31 125.801C455.759 125.801 454.552 126.921 454.552 128.919C454.552 130.918 455.793 132.089 457.31 132.089C458.827 132.089 460.033 130.952 460.033 128.919Z" fill="#004899"/>
<path d="M467.507 135.29C467.507 131.758 470.316 129.983 476.935 129.26C476.866 127.623 476.211 126.245 474.057 126.245C472.488 126.245 470.971 126.899 469.541 127.744L468.162 125.194C469.937 124.074 472.23 123.092 474.781 123.092C478.78 123.092 480.813 125.573 480.813 130.069V139.597H477.676L477.349 137.822H477.211C475.763 139.063 474.195 139.976 472.299 139.976C469.489 139.976 467.524 138.081 467.524 135.255L467.507 135.29ZM476.935 135.29V131.878C472.54 132.395 471.23 133.377 471.23 135.014C471.23 136.392 472.143 136.909 473.453 136.909C474.763 136.909 475.746 136.392 476.918 135.273L476.935 135.29Z" fill="#004899"/>
<path d="M485.093 123.51H488.264L488.557 126.387H488.661C489.833 124.285 491.539 123.113 493.246 123.113C494.073 123.113 494.59 123.251 495.073 123.441L494.28 126.749C493.797 126.611 493.401 126.559 492.746 126.559C491.47 126.559 489.936 127.403 488.988 129.867V139.618H485.093V123.51Z" fill="#004899"/>
<path d="M496.099 131.567C496.099 126.33 499.77 123.125 503.528 123.125C507.888 123.125 510.233 126.261 510.233 130.792C510.233 131.584 510.164 132.17 510.043 132.756H499.891C500.287 135.444 501.994 137.011 504.545 137.011C505.923 137.011 507.165 136.615 508.285 135.892L509.595 138.321C508.095 139.441 506.13 140.026 504.027 140.026C499.58 140.026 496.099 136.942 496.099 131.584V131.567ZM506.837 129.861C506.837 127.501 505.717 126.123 503.631 126.123C501.804 126.123 500.218 127.432 499.891 129.861H506.837Z" fill="#004899"/>
<path d="M514.317 134.148V126.584H512.024V123.707L514.506 123.517L514.972 118.504H518.178V123.517H522.28V126.601H518.178V134.165C518.178 136.026 518.936 136.939 520.436 136.939C520.987 136.939 521.556 136.835 522.108 136.611L522.797 139.333C521.953 139.73 520.763 140.023 519.453 140.023C515.696 140.023 514.317 137.662 514.317 134.165V134.148Z" fill="#004899"/>
<path d="M532.017 118.182H535.912V126.762H544.427V118.182H548.322V139.58H544.427V130.156H535.912V139.58H532.017V118.182Z" fill="#004899"/>
<path d="M552.271 135.29C552.271 131.758 555.08 129.983 561.699 129.26C561.63 127.623 560.975 126.245 558.82 126.245C557.252 126.245 555.735 126.899 554.304 127.744L552.926 125.194C554.701 124.074 556.993 123.092 559.544 123.092C563.543 123.092 565.577 125.573 565.577 130.069V139.597H562.44L562.113 137.822H561.975C560.527 139.063 558.958 139.976 557.062 139.976C554.253 139.976 552.288 138.081 552.288 135.255L552.271 135.29ZM561.699 135.29V131.878C557.304 132.395 555.994 133.377 555.994 135.014C555.994 136.392 556.907 136.909 558.217 136.909C559.527 136.909 560.51 136.392 561.682 135.273L561.699 135.29Z" fill="#004899"/>
<path d="M569.823 135.387V116.504H573.719V135.593C573.719 136.541 574.15 136.868 574.529 136.868C574.718 136.868 574.856 136.868 575.115 136.799L575.58 139.642C575.115 139.866 574.46 140.004 573.546 140.004C570.823 140.004 569.823 138.229 569.823 135.387Z" fill="#004899"/>
<path d="M578.456 135.387V116.504H582.352V135.593C582.352 136.541 582.782 136.868 583.162 136.868C583.351 136.868 583.489 136.868 583.748 136.799L584.213 139.642C583.748 139.866 583.093 140.004 582.179 140.004C579.456 140.004 578.456 138.229 578.456 135.387Z" fill="#004899"/>
<path d="M324.79 163.426V150.832H327.548V163.495C327.548 168.629 329.702 170.266 332.529 170.266C335.356 170.266 337.597 168.629 337.597 163.495V150.832H340.251V163.426C340.251 170.301 336.907 172.695 332.529 172.695C328.151 172.695 324.807 170.301 324.807 163.426H324.79Z" fill="#004899"/>
<path d="M344.832 156.461H347.055L347.279 158.752H347.383C348.882 157.253 350.52 156.064 352.726 156.064C356.104 156.064 357.604 158.218 357.604 162.284V172.363H354.881V162.646C354.881 159.665 353.967 158.425 351.864 158.425C350.261 158.425 349.106 159.252 347.538 160.854V172.38H344.814V156.478L344.832 156.461Z" fill="#004899"/>
<path d="M361.443 151.378C361.443 150.327 362.202 149.604 363.236 149.604C364.27 149.604 365.029 150.327 365.029 151.378C365.029 152.429 364.27 153.153 363.236 153.153C362.202 153.153 361.443 152.464 361.443 151.378ZM361.857 156.426H364.58V172.328H361.857V156.426Z" fill="#004899"/>
<path d="M367.041 156.4H369.851L372.833 165.411C373.315 166.979 373.815 168.581 374.298 170.132H374.435C374.901 168.598 375.418 166.996 375.918 165.411L378.9 156.4H381.589L375.952 172.303H372.781L367.041 156.4Z" fill="#004899"/>
<path d="M382.515 164.407C382.515 159.238 386.014 156.068 389.651 156.068C393.719 156.068 396.029 158.946 396.029 163.528C396.029 164.114 395.994 164.614 395.891 165.131H385.187C385.411 168.404 387.41 170.558 390.427 170.558C391.961 170.558 393.305 170.127 394.426 169.386L395.374 171.126C393.995 172.108 392.288 172.763 390.099 172.763C385.842 172.763 382.498 169.679 382.498 164.424L382.515 164.407ZM393.616 163.029C393.616 159.893 392.151 158.222 389.72 158.222C387.497 158.222 385.532 159.997 385.204 163.029H393.616Z" fill="#004899"/>
<path d="M399.322 156.461H401.545L401.77 159.338H401.873C402.993 157.339 404.631 156.064 406.389 156.064C407.113 156.064 407.595 156.168 408.095 156.392L407.509 158.718C407.044 158.58 406.682 158.528 406.061 158.528C404.717 158.528 403.114 159.476 402.028 162.163V172.38H399.305V156.478L399.322 156.461Z" fill="#004899"/>
<path d="M408.661 170.468L409.902 168.9C411.281 170.037 412.711 170.64 414.676 170.64C416.779 170.64 417.779 169.555 417.779 168.176C417.779 166.54 416.004 165.85 414.211 165.196C411.815 164.351 409.523 163.197 409.523 160.578C409.523 157.96 411.557 156.064 415.021 156.064C417.021 156.064 418.727 156.823 419.968 157.856L418.727 159.424C417.607 158.597 416.469 158.149 415.056 158.149C413.022 158.149 412.143 159.269 412.143 160.441C412.143 161.888 413.522 162.474 415.521 163.163C418.003 164.041 420.399 165.127 420.399 168.004C420.399 170.588 418.331 172.742 414.573 172.742C412.246 172.742 410.126 171.898 408.644 170.45L408.661 170.468Z" fill="#004899"/>
<path d="M422.946 151.378C422.946 150.327 423.705 149.604 424.739 149.604C425.773 149.604 426.532 150.327 426.532 151.378C426.532 152.429 425.773 153.153 424.739 153.153C423.705 153.153 422.946 152.464 422.946 151.378ZM423.377 156.426H426.101V172.328H423.377V156.426Z" fill="#004899"/>
<path d="M431.093 167.369V158.6H428.731V156.567L431.214 156.395L431.541 151.295H433.799V156.395H438.125V158.583H433.799V167.421C433.799 169.351 434.454 170.471 436.264 170.471C436.85 170.471 437.436 170.367 438.091 170.074L438.642 172.004C437.798 172.4 436.712 172.693 435.626 172.693C432.213 172.693 431.076 170.539 431.076 167.352L431.093 167.369Z" fill="#004899"/>
<path d="M440.448 178.815L441.034 176.696C441.43 176.834 441.827 176.885 442.206 176.885C443.981 176.885 445.119 175.473 445.774 173.509L446.136 172.337L439.741 156.4H442.551L445.757 165.17C446.274 166.548 446.808 168.185 447.325 169.649H447.463C447.894 168.202 448.342 166.565 448.773 165.17L451.617 156.4H454.272L448.273 173.612C447.153 176.748 445.498 179.142 442.309 179.142C441.551 179.142 440.931 179.005 440.413 178.815H440.448Z" fill="#004899"/>
<path d="M463.94 166.984C463.94 161.092 467.836 156.371 472.49 156.371C475.575 156.371 477.799 158.404 477.799 162.108C477.799 167.811 474.007 172.738 469.422 172.738C466.371 172.738 463.958 170.705 463.958 166.984H463.94ZM475.127 162.591C475.127 159.059 473.886 157.68 472.111 157.68C468.991 157.68 466.612 161.712 466.612 166.588C466.612 170.016 467.922 171.429 469.749 171.429C472.955 171.429 475.11 166.984 475.11 162.591H475.127Z" fill="#004899"/>
<path d="M493.193 150.147C492.969 150.94 492.504 151.267 491.918 151.267C490.935 151.267 490.384 150.75 489.332 149.476L488.815 148.855C487.143 149.613 485.678 151.44 484.851 156.453C484.816 156.591 484.816 156.677 484.782 156.815H489.005L488.746 158.555L484.523 158.417C483.834 162.569 483.144 167.066 482.334 171.184C481.645 174.681 480.8 177.266 478.956 178.902C477.611 180.108 476.525 180.505 475.491 180.505C474.009 180.505 472.733 179.712 472.44 178.472C472.578 177.782 473.233 177.3 473.94 177.3C474.888 177.3 475.612 177.92 476.336 178.644L476.732 179.04C477.163 178.713 477.611 178.248 478.077 177.627C478.904 176.421 479.456 174.578 480.076 171.184C480.869 166.79 481.524 162.776 482.196 158.348H478.783L479.042 157.108L482.455 156.815L482.489 156.522C483.61 149.286 487.367 147.787 489.505 147.787C491.435 147.787 492.935 148.959 493.21 150.182L493.193 150.147Z" fill="#004899"/>
<path d="M496.173 161.519C496.173 154.644 499.93 150.492 505.343 150.492C510.755 150.492 514.547 154.679 514.547 161.519C514.547 168.358 510.755 172.752 505.343 172.752C499.93 172.752 496.173 168.427 496.173 161.519ZM511.703 161.519C511.703 156.178 509.186 152.904 505.343 152.904C501.499 152.904 499.017 156.178 499.017 161.519C499.017 166.86 501.499 170.323 505.343 170.323C509.186 170.323 511.703 166.894 511.703 161.519Z" fill="#004899"/>
<path d="M521.331 163.998L516.522 156.4H519.47L521.59 159.863C522.089 160.742 522.607 161.638 523.124 162.517H523.262C523.761 161.638 524.21 160.742 524.709 159.863L526.64 156.4H529.484L524.675 164.291L529.846 172.303H526.898L524.572 168.598C524.02 167.651 523.434 166.669 522.831 165.756H522.693C522.176 166.669 521.641 167.651 521.09 168.598L518.952 172.303H516.108L521.314 163.981L521.331 163.998Z" fill="#004899"/>
<path d="M533.488 158.608H531.333V156.575L533.488 156.403V153.922C533.488 150.683 534.97 148.615 538.141 148.615C539.124 148.615 540.141 148.839 540.796 149.132L540.21 151.131C539.589 150.941 539.003 150.803 538.434 150.803C536.935 150.803 536.211 151.889 536.211 153.904V156.385H539.555V158.573H536.211V172.288H533.488V158.573V158.608Z" fill="#004899"/>
<path d="M540.627 164.438C540.627 159.097 544.092 156.064 548.004 156.064C551.917 156.064 555.399 159.114 555.399 164.438C555.399 169.761 551.9 172.759 548.004 172.759C544.109 172.759 540.627 169.71 540.627 164.438ZM552.589 164.438C552.589 160.768 550.762 158.321 548.004 158.321C545.246 158.321 543.454 160.785 543.454 164.438C543.454 168.09 545.281 170.485 548.004 170.485C550.728 170.485 552.589 168.056 552.589 164.438Z" fill="#004899"/>
<path d="M558.861 156.461H561.085L561.309 159.338H561.412C562.532 157.339 564.17 156.064 565.928 156.064C566.652 156.064 567.135 156.168 567.634 156.392L567.048 158.718C566.583 158.58 566.221 158.528 565.601 158.528C564.256 158.528 562.653 159.476 561.567 162.163V172.38H558.844V156.478L558.861 156.461Z" fill="#004899"/>
<path d="M568.367 164.42C568.367 159.252 571.642 156.047 575.279 156.047C577.106 156.047 578.33 156.736 579.726 157.874L579.588 155.151V149.035H582.312V172.346H580.088L579.864 170.485H579.761C578.52 171.691 576.813 172.742 574.952 172.742C570.953 172.742 568.367 169.727 568.367 164.42ZM579.588 168.297V159.975C578.244 158.769 577.037 158.339 575.727 158.339C573.211 158.339 571.177 160.768 571.177 164.386C571.177 168.004 572.745 170.433 575.538 170.433C577.02 170.433 578.295 169.71 579.605 168.28L579.588 168.297Z" fill="#004899"/>
<path d="M378.584 78.3131L374.861 94.1463H347.955C347.731 84.7566 347.731 75.4876 347.731 67.9414V59.6716C347.731 50.1268 347.731 40.4098 347.972 30.7272L358.952 29.3834V23.9219H324.03V29.3834L335.165 30.7272C335.389 40.2375 335.389 49.9373 335.389 59.6716V65.2709C335.389 74.8157 335.389 84.5327 335.148 94.2152L324.03 95.5591V101.021H385.461L386.72 78.3131H378.584Z" fill="#004899"/>
<path d="M481.455 30.7445L492.59 29.3834V23.9219H467.77L442.449 86.1005L415.457 23.9219H392.463V29.3834L403.115 30.7962V93.8879L392.17 95.5419V101.003H419.524V95.5419L409.993 93.9568V58.3966L409.234 37.7049L436.64 101.003H443.38L469.183 37.6704V64.8402C469.304 74.9018 469.217 84.6877 469.045 94.2152L459.082 95.5419V101.003H492.608V95.5419L481.49 94.1808C481.266 84.4982 481.249 74.7812 481.249 65.2537V59.6543C481.249 49.9373 481.249 40.2203 481.473 30.7272L481.455 30.7445Z" fill="#004899"/>
<path d="M573.864 30.7272L584.999 29.3834V23.9219H550.078V29.3834L561.144 30.7272C561.282 40.1686 561.299 49.6444 561.299 58.9652H522.586C522.586 49.4721 522.586 39.9963 522.81 30.7272L533.789 29.3834V23.9219H498.868V29.3834L509.986 30.7272C510.21 40.4098 510.227 50.1268 510.227 59.6716V65.2709C510.227 74.9879 510.227 84.705 510.003 94.2152L498.868 95.5591V101.021H533.789V95.5591L522.793 94.2152C522.586 84.8773 522.568 75.3325 522.568 65.1331H561.282C561.282 75.4876 561.282 85.0323 561.127 94.198L550.061 95.5419V101.003H584.982V95.5419L573.864 94.198C573.64 84.5154 573.623 74.7984 573.623 65.2537V59.6543C573.623 49.9373 573.623 40.2203 573.864 30.71V30.7272Z" fill="#004899"/>
</svg>
